<svg width="156" height="40" viewBox="0 0 156 40" fill="none" xmlns="http://www.w3.org/2000/svg">
<rect width="156" height="40" rx="12" fill="#231E25"/>
<g clip-path="url(#clip0_3404_418)">
<path d="M36 8H12V32H36V8Z" fill="#231E25"/>
<path d="M20.2399 16.96L21.8399 29.04C21.9199 29.84 22.8799 30.24 23.5999 29.76L33.1999 22.32C33.8399 21.84 33.7599 20.8 32.9599 20.48L21.7599 15.84C20.9599 15.52 20.1599 16.16 20.2399 16.96Z" stroke="white" stroke-width="1.5" stroke-miterlimit="10"/>
<path d="M21.1198 22.88C24.6102 22.88 27.4398 20.0504 27.4398 16.56C27.4398 13.0696 24.6102 10.24 21.1198 10.24C17.6294 10.24 14.7998 13.0696 14.7998 16.56C14.7998 20.0504 17.6294 22.88 21.1198 22.88Z" stroke="white" stroke-width="1.5" stroke-miterlimit="10"/>
</g>
<path d="M46.912 26V21.424H49.872L52.032 26H53.776L51.424 21.12C52.864 20.656 53.664 19.504 53.664 17.904C53.664 15.744 52.192 14.432 49.712 14.432H45.344V26H46.912ZM46.912 15.84H49.712C51.152 15.84 52.016 16.576 52.016 17.92C52.016 19.248 51.184 20.032 49.728 20.032H46.912V15.84ZM58.4703 26.192C60.4063 26.192 61.7183 25.248 62.1023 23.568H60.6943C60.4383 24.464 59.6703 24.944 58.5023 24.944C57.0143 24.944 56.1503 24.032 56.0383 22.384L62.0863 22.368V21.808C62.0863 19.488 60.6303 17.952 58.4063 17.952C56.1343 17.952 54.5823 19.648 54.5823 22.096C54.5823 24.528 56.1663 26.192 58.4703 26.192ZM58.4063 19.216C59.7343 19.216 60.5823 20.08 60.5823 21.376H56.0703C56.2623 20 57.0943 19.216 58.4063 19.216ZM65.4021 26V14.224H63.8981V26H65.4021ZM70.0041 26.192C71.2681 26.192 72.3401 25.632 72.7401 24.736L72.9001 26H74.1801V21.088C74.1801 18.976 72.8681 17.952 70.9321 17.952C68.9161 17.952 67.5721 19.024 67.5721 20.656H68.8841C68.8841 19.712 69.6041 19.152 70.8681 19.152C71.9241 19.152 72.7081 19.616 72.7081 20.928V21.152L70.2441 21.344C68.4041 21.488 67.3321 22.384 67.3321 23.824C67.3321 25.248 68.3241 26.192 70.0041 26.192ZM70.4361 25.024C69.4601 25.024 68.8521 24.608 68.8521 23.776C68.8521 23.008 69.3961 22.496 70.7241 22.368L72.7241 22.208V22.624C72.7241 24.096 71.8601 25.024 70.4361 25.024ZM78.446 26V19.44H79.982V18.176H78.446V15.728H76.942V18.176H75.406V19.44H76.942V26H78.446ZM82.1678 16.32C82.7118 16.32 83.1598 15.872 83.1598 15.328C83.1598 14.768 82.7118 14.336 82.1678 14.336C81.6238 14.336 81.1758 14.768 81.1758 15.328C81.1758 15.872 81.6238 16.32 82.1678 16.32ZM81.4318 26H82.9358V18.176H81.4318V26ZM84.7072 22.08C84.7072 24.496 86.4352 26.192 88.7872 26.192C91.1232 26.192 92.8512 24.496 92.8512 22.08C92.8512 19.664 91.1232 17.968 88.7872 17.968C86.4352 17.968 84.7072 19.664 84.7072 22.08ZM86.2272 22.08C86.2272 20.448 87.2672 19.312 88.7872 19.312C90.2912 19.312 91.3472 20.448 91.3472 22.08C91.3472 23.712 90.2912 24.848 88.7872 24.848C87.2672 24.848 86.2272 23.712 86.2272 22.08ZM96.1201 26V21.856C96.1201 20.336 96.9361 19.328 98.3441 19.328C99.4961 19.328 100.232 19.968 100.232 21.552V26H101.736V21.216C101.736 19.216 100.792 17.952 98.7281 17.952C97.6241 17.952 96.6321 18.48 96.1361 19.376L95.9761 18.176H94.6161V26H96.1201ZM103.185 23.728C103.185 25.216 104.353 26.192 106.193 26.192C108.049 26.192 109.329 25.248 109.329 23.76C109.329 22.592 108.673 21.984 107.345 21.664L105.969 21.328C105.201 21.136 104.817 20.784 104.817 20.256C104.817 19.536 105.345 19.12 106.289 19.12C107.201 19.12 107.729 19.616 107.761 20.4H109.201C109.169 18.912 108.049 17.952 106.337 17.952C104.609 17.952 103.393 18.864 103.393 20.304C103.393 21.456 104.049 22.144 105.441 22.48L106.817 22.8C107.633 23.008 107.889 23.328 107.889 23.856C107.889 24.576 107.281 25.008 106.225 25.008C105.233 25.008 104.625 24.528 104.625 23.728H103.185ZM112.601 25.984V21.728C112.601 20.384 113.385 19.328 114.841 19.328C115.961 19.328 116.713 19.968 116.713 21.552V26H118.217V21.216C118.217 19.216 117.257 17.952 115.257 17.952C114.041 17.952 113.097 18.528 112.601 19.376V14.224H111.097V25.984H112.601ZM121.137 16.32C121.681 16.32 122.129 15.872 122.129 15.328C122.129 14.768 121.681 14.336 121.137 14.336C120.593 14.336 120.145 14.768 120.145 15.328C120.145 15.872 120.593 16.32 121.137 16.32ZM120.401 26H121.905V18.176H120.401V26ZM124.188 29.504H125.692V24.72C126.204 25.68 127.244 26.208 128.492 26.208C130.812 26.208 132.124 24.416 132.124 22.032C132.124 19.632 130.732 17.952 128.492 17.952C127.244 17.952 126.188 18.512 125.66 19.584L125.548 18.176H124.188V29.504ZM125.708 22.096C125.708 20.464 126.636 19.328 128.172 19.328C129.708 19.328 130.62 20.48 130.62 22.096C130.62 23.696 129.708 24.848 128.172 24.848C126.636 24.848 125.708 23.696 125.708 22.096ZM133.242 23.728C133.242 25.216 134.41 26.192 136.25 26.192C138.106 26.192 139.386 25.248 139.386 23.76C139.386 22.592 138.73 21.984 137.402 21.664L136.026 21.328C135.258 21.136 134.874 20.784 134.874 20.256C134.874 19.536 135.402 19.12 136.346 19.12C137.258 19.12 137.786 19.616 137.818 20.4H139.258C139.226 18.912 138.106 17.952 136.394 17.952C134.666 17.952 133.45 18.864 133.45 20.304C133.45 21.456 134.106 22.144 135.498 22.48L136.874 22.8C137.69 23.008 137.946 23.328 137.946 23.856C137.946 24.576 137.338 25.008 136.282 25.008C135.29 25.008 134.682 24.528 134.682 23.728H133.242Z" fill="white"/>
<defs>
<clipPath id="clip0_3404_418">
<rect width="24" height="24" fill="white" transform="translate(12 8)"/>
</clipPath>
</defs>
</svg>
