<svg width="347" height="144" viewBox="0 0 347 144" fill="none" xmlns="http://www.w3.org/2000/svg">
<g filter="url(#filter0_d_3404_401)">
<rect x="22" y="14" width="303" height="100" rx="16" fill="#231E25"/>
</g>
<g filter="url(#filter1_d_3404_401)">
<path d="M22 30C22 21.1634 29.1634 14 38 14H122V114H38C29.1634 114 22 106.837 22 98V30Z" fill="#879F8E"/>
</g>
<path d="M131.624 30.568C131.624 32.36 132.664 33.496 134.648 33.928L136.504 34.344C137.464 34.552 137.864 35.016 137.864 35.8C137.864 36.776 137 37.368 135.64 37.368C134.328 37.368 133.528 36.776 133.512 35.784H131.464C131.512 37.88 133.144 39.208 135.64 39.208C138.216 39.208 139.912 37.8 139.912 35.624C139.912 33.88 138.936 32.856 136.936 32.424L135.096 32.024C134.12 31.8 133.672 31.336 133.672 30.504C133.672 29.528 134.488 28.92 135.752 28.92C136.904 28.92 137.624 29.512 137.672 30.52H139.72C139.656 28.408 138.152 27.096 135.784 27.096C133.32 27.096 131.624 28.52 131.624 30.568ZM145.113 39.208C147.177 39.208 148.617 38.168 148.953 36.44H147.145C146.921 37.192 146.217 37.608 145.145 37.608C143.849 37.608 143.113 36.904 142.969 35.512L148.921 35.496V34.904C148.921 32.44 147.417 30.856 145.049 30.856C142.729 30.856 141.113 32.568 141.113 35.048C141.113 37.496 142.761 39.208 145.113 39.208ZM145.065 32.456C146.233 32.456 146.985 33.176 146.985 34.264H143.017C143.209 33.08 143.913 32.456 145.065 32.456ZM153.193 39V32.728H154.729V31.096H153.193V28.632H151.241V31.096H149.721V32.728H151.241V39H153.193ZM158.949 39V32.728H160.485V31.096H158.949V28.632H156.997V31.096H155.477V32.728H156.997V39H158.949ZM162.775 29.512C163.415 29.512 163.943 28.984 163.943 28.328C163.943 27.672 163.415 27.16 162.775 27.16C162.103 27.16 161.575 27.672 161.575 28.328C161.575 28.984 162.103 29.512 162.775 29.512ZM161.799 39H163.751V31.096H161.799V39ZM167.819 39V34.744C167.819 33.464 168.555 32.632 169.755 32.632C170.763 32.632 171.419 33.272 171.419 34.6V39H173.371V34.136C173.371 32.088 172.347 30.856 170.363 30.856C169.291 30.856 168.331 31.32 167.835 32.12L167.675 31.096H165.867V39H167.819ZM174.941 34.872C174.941 37.16 176.413 38.84 178.653 38.84C179.789 38.84 180.765 38.376 181.261 37.64V38.952C181.261 40.264 180.397 41.112 179.053 41.112C177.853 41.112 177.069 40.504 176.941 39.48H174.989C175.229 41.592 176.781 42.888 179.053 42.888C181.613 42.888 183.197 41.24 183.197 38.6V31.096H181.389L181.277 32.184C180.813 31.336 179.885 30.84 178.701 30.84C176.445 30.84 174.941 32.568 174.941 34.872ZM176.909 34.824C176.909 33.528 177.741 32.552 179.037 32.552C180.397 32.552 181.213 33.48 181.213 34.824C181.213 36.2 180.381 37.144 179.037 37.144C177.757 37.144 176.909 36.152 176.909 34.824ZM191.538 39L191.666 37.768C192.13 38.68 193.138 39.208 194.322 39.208C196.594 39.208 198.082 37.528 198.082 35.096C198.082 32.6 196.706 30.84 194.45 30.84C193.25 30.84 192.194 31.368 191.682 32.248V27.096H189.73V39H191.538ZM191.698 35.016C191.698 33.592 192.578 32.6 193.922 32.6C195.298 32.6 196.114 33.608 196.114 35.016C196.114 36.424 195.298 37.416 193.922 37.416C192.578 37.416 191.698 36.44 191.698 35.016ZM199.272 35.032C199.272 37.496 201.048 39.192 203.496 39.192C205.944 39.192 207.72 37.496 207.72 35.032C207.72 32.568 205.944 30.872 203.496 30.872C201.048 30.872 199.272 32.568 199.272 35.032ZM201.224 35.032C201.224 33.592 202.152 32.616 203.496 32.616C204.84 32.616 205.768 33.592 205.768 35.032C205.768 36.472 204.84 37.448 203.496 37.448C202.152 37.448 201.224 36.472 201.224 35.032ZM214.54 31.096V35.24C214.54 36.744 213.948 37.464 212.716 37.464C211.628 37.464 211.036 36.856 211.036 35.352V31.096H209.084V36.04C209.084 37.976 210.156 39.208 211.98 39.208C213.036 39.208 214.06 38.696 214.54 37.944L214.684 39H216.492V31.096H214.54ZM220.56 39V34.744C220.56 33.464 221.296 32.632 222.496 32.632C223.504 32.632 224.16 33.272 224.16 34.6V39H226.112V34.136C226.112 32.088 225.088 30.856 223.104 30.856C222.032 30.856 221.072 31.32 220.576 32.12L220.416 31.096H218.608V39H220.56ZM231.378 39.208C232.578 39.208 233.602 38.68 234.082 37.768L234.21 39H236.002V27.096H234.066V32.104C233.57 31.32 232.594 30.856 231.49 30.856C229.106 30.856 227.666 32.616 227.666 35.08C227.666 37.528 229.09 39.208 231.378 39.208ZM231.81 37.416C230.45 37.416 229.618 36.424 229.618 35.016C229.618 33.608 230.45 32.6 231.81 32.6C233.17 32.6 234.05 33.592 234.05 35.016C234.05 36.44 233.17 37.416 231.81 37.416ZM240.488 39.208C241.72 39.208 242.792 38.648 243.128 37.832L243.272 39H244.984V34.2C244.984 32.008 243.672 30.856 241.544 30.856C239.4 30.856 237.992 31.976 237.992 33.688H239.656C239.656 32.856 240.296 32.376 241.448 32.376C242.44 32.376 243.08 32.808 243.08 33.88V34.056L240.712 34.232C238.84 34.376 237.784 35.288 237.784 36.744C237.784 38.232 238.808 39.208 240.488 39.208ZM241.128 37.736C240.248 37.736 239.768 37.384 239.768 36.664C239.768 36.024 240.232 35.624 241.448 35.512L243.096 35.384V35.8C243.096 37.016 242.328 37.736 241.128 37.736ZM251.962 31.064C251.642 30.984 251.37 30.952 251.098 30.952C250.042 30.952 249.29 31.48 248.954 32.264L248.842 31.112H247.002V39H248.954V35.16C248.954 33.624 249.834 32.872 251.242 32.872H251.962V31.064ZM254.359 29.512C254.999 29.512 255.527 28.984 255.527 28.328C255.527 27.672 254.999 27.16 254.359 27.16C253.687 27.16 253.159 27.672 253.159 28.328C253.159 28.984 253.687 29.512 254.359 29.512ZM253.383 39H255.335V31.096H253.383V39ZM260.988 39.208C263.052 39.208 264.492 38.168 264.828 36.44H263.02C262.796 37.192 262.092 37.608 261.02 37.608C259.724 37.608 258.988 36.904 258.844 35.512L264.796 35.496V34.904C264.796 32.44 263.292 30.856 260.924 30.856C258.604 30.856 256.988 32.568 256.988 35.048C256.988 37.496 258.636 39.208 260.988 39.208ZM260.94 32.456C262.108 32.456 262.86 33.176 262.86 34.264H258.892C259.084 33.08 259.788 32.456 260.94 32.456ZM265.85 36.6C265.85 38.152 267.098 39.208 269.066 39.208C271.018 39.208 272.378 38.216 272.378 36.616C272.378 35.4 271.706 34.792 270.378 34.488L268.954 34.152C268.282 33.992 267.93 33.704 267.93 33.256C267.93 32.664 268.378 32.312 269.146 32.312C269.898 32.312 270.346 32.744 270.362 33.416H272.218C272.202 31.88 271.002 30.856 269.226 30.856C267.402 30.856 266.09 31.784 266.09 33.336C266.09 34.6 266.778 35.272 268.202 35.592L269.626 35.928C270.33 36.088 270.538 36.376 270.538 36.776C270.538 37.352 270.042 37.72 269.13 37.72C268.234 37.72 267.722 37.288 267.706 36.6H265.85Z" fill="white"/>
<path d="M133.013 49.796H134.313L136.341 57.154H136.367L138.538 49.796H139.968L142.139 57.154H142.165L144.193 49.796H145.493L142.815 59H141.502L139.266 51.486H139.24L137.017 59H135.704L133.013 49.796ZM146.089 49.172H147.259V53.787H147.285C147.432 53.4577 147.688 53.1933 148.052 52.994C148.416 52.786 148.836 52.682 149.313 52.682C149.608 52.682 149.889 52.7297 150.158 52.825C150.435 52.9117 150.674 53.0503 150.873 53.241C151.081 53.4317 151.246 53.6787 151.367 53.982C151.488 54.2767 151.549 54.6277 151.549 55.035V59H150.379V55.36C150.379 55.074 150.34 54.8313 150.262 54.632C150.184 54.424 150.08 54.2593 149.95 54.138C149.82 54.008 149.668 53.917 149.495 53.865C149.33 53.8043 149.157 53.774 148.975 53.774C148.732 53.774 148.507 53.813 148.299 53.891C148.091 53.969 147.909 54.0947 147.753 54.268C147.597 54.4327 147.476 54.645 147.389 54.905C147.302 55.165 147.259 55.4727 147.259 55.828V59H146.089V49.172ZM153.897 56.348C153.897 56.6167 153.953 56.8637 154.066 57.089C154.187 57.3057 154.343 57.492 154.534 57.648C154.724 57.804 154.945 57.9253 155.197 58.012C155.448 58.0987 155.708 58.142 155.977 58.142C156.341 58.142 156.657 58.0597 156.926 57.895C157.194 57.7217 157.441 57.4963 157.667 57.219L158.551 57.895C157.901 58.7357 156.991 59.156 155.821 59.156C155.335 59.156 154.893 59.0737 154.495 58.909C154.105 58.7443 153.771 58.519 153.494 58.233C153.225 57.9383 153.017 57.596 152.87 57.206C152.722 56.8073 152.649 56.3783 152.649 55.919C152.649 55.4597 152.727 55.035 152.883 54.645C153.047 54.2463 153.268 53.904 153.546 53.618C153.832 53.3233 154.17 53.0937 154.56 52.929C154.95 52.7643 155.374 52.682 155.834 52.682C156.38 52.682 156.839 52.7773 157.212 52.968C157.593 53.1587 157.905 53.41 158.148 53.722C158.39 54.0253 158.564 54.372 158.668 54.762C158.78 55.1433 158.837 55.5333 158.837 55.932V56.348H153.897ZM157.589 55.412C157.58 55.152 157.537 54.9137 157.459 54.697C157.389 54.4803 157.281 54.294 157.134 54.138C156.986 53.9733 156.8 53.8477 156.575 53.761C156.358 53.6657 156.102 53.618 155.808 53.618C155.522 53.618 155.257 53.6743 155.015 53.787C154.781 53.891 154.581 54.0297 154.417 54.203C154.252 54.3763 154.122 54.5713 154.027 54.788C153.94 54.996 153.897 55.204 153.897 55.412H157.589ZM159.936 52.838H161.106V53.787H161.132C161.279 53.4577 161.535 53.1933 161.899 52.994C162.263 52.786 162.683 52.682 163.16 52.682C163.455 52.682 163.736 52.7297 164.005 52.825C164.282 52.9117 164.521 53.0503 164.72 53.241C164.928 53.4317 165.093 53.6787 165.214 53.982C165.335 54.2767 165.396 54.6277 165.396 55.035V59H164.226V55.36C164.226 55.074 164.187 54.8313 164.109 54.632C164.031 54.424 163.927 54.2593 163.797 54.138C163.667 54.008 163.515 53.917 163.342 53.865C163.177 53.8043 163.004 53.774 162.822 53.774C162.579 53.774 162.354 53.813 162.146 53.891C161.938 53.969 161.756 54.0947 161.6 54.268C161.444 54.4327 161.323 54.645 161.236 54.905C161.149 55.165 161.106 55.4727 161.106 55.828V59H159.936V52.838ZM170.269 49.172H171.439V59H170.269V49.172ZM173.092 52.838H174.262V59H173.092V52.838ZM172.819 50.628C172.819 50.394 172.901 50.1947 173.066 50.03C173.239 49.8567 173.443 49.77 173.677 49.77C173.911 49.77 174.11 49.8567 174.275 50.03C174.448 50.1947 174.535 50.394 174.535 50.628C174.535 50.862 174.448 51.0657 174.275 51.239C174.11 51.4037 173.911 51.486 173.677 51.486C173.443 51.486 173.239 51.4037 173.066 51.239C172.901 51.0657 172.819 50.862 172.819 50.628ZM176.279 53.852H174.953V52.838H176.279V51.46C176.279 50.6367 176.435 50.0257 176.747 49.627C177.068 49.2197 177.614 49.016 178.385 49.016C178.515 49.016 178.649 49.0203 178.788 49.029C178.935 49.0377 179.091 49.0637 179.256 49.107L179.126 50.147C179.013 50.1037 178.905 50.0733 178.801 50.056C178.697 50.0387 178.584 50.03 178.463 50.03C178.246 50.03 178.073 50.0647 177.943 50.134C177.813 50.1947 177.709 50.2857 177.631 50.407C177.562 50.5283 177.514 50.6757 177.488 50.849C177.471 51.0137 177.462 51.2043 177.462 51.421V52.838H178.853V53.852H177.449V59H176.279V53.852ZM180.737 56.348C180.737 56.6167 180.793 56.8637 180.906 57.089C181.027 57.3057 181.183 57.492 181.374 57.648C181.565 57.804 181.786 57.9253 182.037 58.012C182.288 58.0987 182.548 58.142 182.817 58.142C183.181 58.142 183.497 58.0597 183.766 57.895C184.035 57.7217 184.282 57.4963 184.507 57.219L185.391 57.895C184.741 58.7357 183.831 59.156 182.661 59.156C182.176 59.156 181.734 59.0737 181.335 58.909C180.945 58.7443 180.611 58.519 180.334 58.233C180.065 57.9383 179.857 57.596 179.71 57.206C179.563 56.8073 179.489 56.3783 179.489 55.919C179.489 55.4597 179.567 55.035 179.723 54.645C179.888 54.2463 180.109 53.904 180.386 53.618C180.672 53.3233 181.01 53.0937 181.4 52.929C181.79 52.7643 182.215 52.682 182.674 52.682C183.22 52.682 183.679 52.7773 184.052 52.968C184.433 53.1587 184.745 53.41 184.988 53.722C185.231 54.0253 185.404 54.372 185.508 54.762C185.621 55.1433 185.677 55.5333 185.677 55.932V56.348H180.737ZM184.429 55.412C184.42 55.152 184.377 54.9137 184.299 54.697C184.23 54.4803 184.121 54.294 183.974 54.138C183.827 53.9733 183.64 53.8477 183.415 53.761C183.198 53.6657 182.943 53.618 182.648 53.618C182.362 53.618 182.098 53.6743 181.855 53.787C181.621 53.891 181.422 54.0297 181.257 54.203C181.092 54.3763 180.962 54.5713 180.867 54.788C180.78 54.996 180.737 55.204 180.737 55.412H184.429ZM190.186 52.838H191.356V59H190.186V52.838ZM189.913 50.628C189.913 50.394 189.995 50.1947 190.16 50.03C190.333 49.8567 190.537 49.77 190.771 49.77C191.005 49.77 191.204 49.8567 191.369 50.03C191.542 50.1947 191.629 50.394 191.629 50.628C191.629 50.862 191.542 51.0657 191.369 51.239C191.204 51.4037 191.005 51.486 190.771 51.486C190.537 51.486 190.333 51.4037 190.16 51.239C189.995 51.0657 189.913 50.862 189.913 50.628ZM196.194 54.385C196.055 54.2117 195.882 54.0687 195.674 53.956C195.475 53.8347 195.228 53.774 194.933 53.774C194.656 53.774 194.413 53.8347 194.205 53.956C194.006 54.0687 193.906 54.2377 193.906 54.463C193.906 54.645 193.962 54.7923 194.075 54.905C194.196 55.0177 194.335 55.1087 194.491 55.178C194.656 55.2473 194.829 55.2993 195.011 55.334C195.193 55.3687 195.349 55.399 195.479 55.425C195.73 55.4857 195.964 55.5593 196.181 55.646C196.406 55.7327 196.597 55.8453 196.753 55.984C196.918 56.1227 197.043 56.2917 197.13 56.491C197.225 56.6903 197.273 56.933 197.273 57.219C197.273 57.5657 197.199 57.8647 197.052 58.116C196.905 58.3587 196.714 58.558 196.48 58.714C196.246 58.87 195.977 58.9827 195.674 59.052C195.379 59.1213 195.08 59.156 194.777 59.156C194.266 59.156 193.815 59.078 193.425 58.922C193.044 58.766 192.701 58.48 192.398 58.064L193.282 57.336C193.473 57.5267 193.685 57.6957 193.919 57.843C194.153 57.9903 194.439 58.064 194.777 58.064C194.924 58.064 195.072 58.051 195.219 58.025C195.375 57.9903 195.509 57.9427 195.622 57.882C195.743 57.8127 195.839 57.7303 195.908 57.635C195.986 57.531 196.025 57.414 196.025 57.284C196.025 57.1107 195.969 56.9677 195.856 56.855C195.752 56.7423 195.622 56.6557 195.466 56.595C195.319 56.5257 195.158 56.4737 194.985 56.439C194.82 56.3957 194.673 56.361 194.543 56.335C194.292 56.2743 194.053 56.205 193.828 56.127C193.603 56.049 193.403 55.945 193.23 55.815C193.057 55.685 192.918 55.5203 192.814 55.321C192.71 55.1217 192.658 54.8747 192.658 54.58C192.658 54.2593 192.723 53.982 192.853 53.748C192.992 53.5053 193.169 53.306 193.386 53.15C193.611 52.994 193.863 52.877 194.14 52.799C194.426 52.721 194.712 52.682 194.998 52.682C195.414 52.682 195.813 52.76 196.194 52.916C196.575 53.072 196.879 53.332 197.104 53.696L196.194 54.385ZM204.989 54.385C204.85 54.2117 204.677 54.0687 204.469 53.956C204.269 53.8347 204.022 53.774 203.728 53.774C203.45 53.774 203.208 53.8347 203 53.956C202.8 54.0687 202.701 54.2377 202.701 54.463C202.701 54.645 202.757 54.7923 202.87 54.905C202.991 55.0177 203.13 55.1087 203.286 55.178C203.45 55.2473 203.624 55.2993 203.806 55.334C203.988 55.3687 204.144 55.399 204.274 55.425C204.525 55.4857 204.759 55.5593 204.976 55.646C205.201 55.7327 205.392 55.8453 205.548 55.984C205.712 56.1227 205.838 56.2917 205.925 56.491C206.02 56.6903 206.068 56.933 206.068 57.219C206.068 57.5657 205.994 57.8647 205.847 58.116C205.699 58.3587 205.509 58.558 205.275 58.714C205.041 58.87 204.772 58.9827 204.469 59.052C204.174 59.1213 203.875 59.156 203.572 59.156C203.06 59.156 202.61 59.078 202.22 58.922C201.838 58.766 201.496 58.48 201.193 58.064L202.077 57.336C202.267 57.5267 202.48 57.6957 202.714 57.843C202.948 57.9903 203.234 58.064 203.572 58.064C203.719 58.064 203.866 58.051 204.014 58.025C204.17 57.9903 204.304 57.9427 204.417 57.882C204.538 57.8127 204.633 57.7303 204.703 57.635C204.781 57.531 204.82 57.414 204.82 57.284C204.82 57.1107 204.763 56.9677 204.651 56.855C204.547 56.7423 204.417 56.6557 204.261 56.595C204.113 56.5257 203.953 56.4737 203.78 56.439C203.615 56.3957 203.468 56.361 203.338 56.335C203.086 56.2743 202.848 56.205 202.623 56.127C202.397 56.049 202.198 55.945 202.025 55.815C201.851 55.685 201.713 55.5203 201.609 55.321C201.505 55.1217 201.453 54.8747 201.453 54.58C201.453 54.2593 201.518 53.982 201.648 53.748C201.786 53.5053 201.964 53.306 202.181 53.15C202.406 52.994 202.657 52.877 202.935 52.799C203.221 52.721 203.507 52.682 203.793 52.682C204.209 52.682 204.607 52.76 204.989 52.916C205.37 53.072 205.673 53.332 205.899 53.696L204.989 54.385ZM210.491 53.852H208.814V56.647C208.814 56.8203 208.818 56.9937 208.827 57.167C208.836 57.3317 208.866 57.4833 208.918 57.622C208.979 57.752 209.065 57.8603 209.178 57.947C209.299 58.025 209.473 58.064 209.698 58.064C209.837 58.064 209.98 58.051 210.127 58.025C210.274 57.999 210.409 57.9513 210.53 57.882V58.948C210.391 59.026 210.209 59.078 209.984 59.104C209.767 59.1387 209.598 59.156 209.477 59.156C209.026 59.156 208.675 59.0953 208.424 58.974C208.181 58.844 207.999 58.6793 207.878 58.48C207.765 58.2807 207.696 58.0597 207.67 57.817C207.653 57.5657 207.644 57.3143 207.644 57.063V53.852H206.292V52.838H207.644V51.109H208.814V52.838H210.491V53.852ZM211.7 52.838H212.87V53.787H212.896C212.974 53.6223 213.078 53.475 213.208 53.345C213.338 53.2063 213.481 53.0893 213.637 52.994C213.802 52.8987 213.98 52.825 214.17 52.773C214.361 52.7123 214.552 52.682 214.742 52.682C214.933 52.682 215.106 52.708 215.262 52.76L215.21 54.021C215.115 53.995 215.02 53.9733 214.924 53.956C214.829 53.9387 214.734 53.93 214.638 53.93C214.066 53.93 213.629 54.0903 213.325 54.411C213.022 54.7317 212.87 55.23 212.87 55.906V59H211.7V52.838ZM216.867 56.348C216.867 56.6167 216.924 56.8637 217.036 57.089C217.158 57.3057 217.314 57.492 217.504 57.648C217.695 57.804 217.916 57.9253 218.167 58.012C218.419 58.0987 218.679 58.142 218.947 58.142C219.311 58.142 219.628 58.0597 219.896 57.895C220.165 57.7217 220.412 57.4963 220.637 57.219L221.521 57.895C220.871 58.7357 219.961 59.156 218.791 59.156C218.306 59.156 217.864 59.0737 217.465 58.909C217.075 58.7443 216.742 58.519 216.464 58.233C216.196 57.9383 215.988 57.596 215.84 57.206C215.693 56.8073 215.619 56.3783 215.619 55.919C215.619 55.4597 215.697 55.035 215.853 54.645C216.018 54.2463 216.239 53.904 216.516 53.618C216.802 53.3233 217.14 53.0937 217.53 52.929C217.92 52.7643 218.345 52.682 218.804 52.682C219.35 52.682 219.81 52.7773 220.182 52.968C220.564 53.1587 220.876 53.41 221.118 53.722C221.361 54.0253 221.534 54.372 221.638 54.762C221.751 55.1433 221.807 55.5333 221.807 55.932V56.348H216.867ZM220.559 55.412C220.551 55.152 220.507 54.9137 220.429 54.697C220.36 54.4803 220.252 54.294 220.104 54.138C219.957 53.9733 219.771 53.8477 219.545 53.761C219.329 53.6657 219.073 53.618 218.778 53.618C218.492 53.618 218.228 53.6743 217.985 53.787C217.751 53.891 217.552 54.0297 217.387 54.203C217.223 54.3763 217.093 54.5713 216.997 54.788C216.911 54.996 216.867 55.204 216.867 55.412H220.559ZM226.183 54.385C226.044 54.2117 225.871 54.0687 225.663 53.956C225.464 53.8347 225.217 53.774 224.922 53.774C224.645 53.774 224.402 53.8347 224.194 53.956C223.995 54.0687 223.895 54.2377 223.895 54.463C223.895 54.645 223.951 54.7923 224.064 54.905C224.185 55.0177 224.324 55.1087 224.48 55.178C224.645 55.2473 224.818 55.2993 225 55.334C225.182 55.3687 225.338 55.399 225.468 55.425C225.719 55.4857 225.953 55.5593 226.17 55.646C226.395 55.7327 226.586 55.8453 226.742 55.984C226.907 56.1227 227.032 56.2917 227.119 56.491C227.214 56.6903 227.262 56.933 227.262 57.219C227.262 57.5657 227.188 57.8647 227.041 58.116C226.894 58.3587 226.703 58.558 226.469 58.714C226.235 58.87 225.966 58.9827 225.663 59.052C225.368 59.1213 225.069 59.156 224.766 59.156C224.255 59.156 223.804 59.078 223.414 58.922C223.033 58.766 222.69 58.48 222.387 58.064L223.271 57.336C223.462 57.5267 223.674 57.6957 223.908 57.843C224.142 57.9903 224.428 58.064 224.766 58.064C224.913 58.064 225.061 58.051 225.208 58.025C225.364 57.9903 225.498 57.9427 225.611 57.882C225.732 57.8127 225.828 57.7303 225.897 57.635C225.975 57.531 226.014 57.414 226.014 57.284C226.014 57.1107 225.958 56.9677 225.845 56.855C225.741 56.7423 225.611 56.6557 225.455 56.595C225.308 56.5257 225.147 56.4737 224.974 56.439C224.809 56.3957 224.662 56.361 224.532 56.335C224.281 56.2743 224.042 56.205 223.817 56.127C223.592 56.049 223.392 55.945 223.219 55.815C223.046 55.685 222.907 55.5203 222.803 55.321C222.699 55.1217 222.647 54.8747 222.647 54.58C222.647 54.2593 222.712 53.982 222.842 53.748C222.981 53.5053 223.158 53.306 223.375 53.15C223.6 52.994 223.852 52.877 224.129 52.799C224.415 52.721 224.701 52.682 224.987 52.682C225.403 52.682 225.802 52.76 226.183 52.916C226.564 53.072 226.868 53.332 227.093 53.696L226.183 54.385ZM231.659 54.385C231.521 54.2117 231.347 54.0687 231.139 53.956C230.94 53.8347 230.693 53.774 230.398 53.774C230.121 53.774 229.878 53.8347 229.67 53.956C229.471 54.0687 229.371 54.2377 229.371 54.463C229.371 54.645 229.428 54.7923 229.54 54.905C229.662 55.0177 229.8 55.1087 229.956 55.178C230.121 55.2473 230.294 55.2993 230.476 55.334C230.658 55.3687 230.814 55.399 230.944 55.425C231.196 55.4857 231.43 55.5593 231.646 55.646C231.872 55.7327 232.062 55.8453 232.218 55.984C232.383 56.1227 232.509 56.2917 232.595 56.491C232.691 56.6903 232.738 56.933 232.738 57.219C232.738 57.5657 232.665 57.8647 232.517 58.116C232.37 58.3587 232.179 58.558 231.945 58.714C231.711 58.87 231.443 58.9827 231.139 59.052C230.845 59.1213 230.546 59.156 230.242 59.156C229.731 59.156 229.28 59.078 228.89 58.922C228.509 58.766 228.167 58.48 227.863 58.064L228.747 57.336C228.938 57.5267 229.15 57.6957 229.384 57.843C229.618 57.9903 229.904 58.064 230.242 58.064C230.39 58.064 230.537 58.051 230.684 58.025C230.84 57.9903 230.975 57.9427 231.087 57.882C231.209 57.8127 231.304 57.7303 231.373 57.635C231.451 57.531 231.49 57.414 231.49 57.284C231.49 57.1107 231.434 56.9677 231.321 56.855C231.217 56.7423 231.087 56.6557 230.931 56.595C230.784 56.5257 230.624 56.4737 230.45 56.439C230.286 56.3957 230.138 56.361 230.008 56.335C229.757 56.2743 229.519 56.205 229.293 56.127C229.068 56.049 228.869 55.945 228.695 55.815C228.522 55.685 228.383 55.5203 228.279 55.321C228.175 55.1217 228.123 54.8747 228.123 54.58C228.123 54.2593 228.188 53.982 228.318 53.748C228.457 53.5053 228.635 53.306 228.851 53.15C229.077 52.994 229.328 52.877 229.605 52.799C229.891 52.721 230.177 52.682 230.463 52.682C230.879 52.682 231.278 52.76 231.659 52.916C232.041 53.072 232.344 53.332 232.569 53.696L231.659 54.385ZM234.315 53.852H232.989V52.838H234.315V51.46C234.315 50.6367 234.471 50.0257 234.783 49.627C235.103 49.2197 235.649 49.016 236.421 49.016C236.551 49.016 236.685 49.0203 236.824 49.029C236.971 49.0377 237.127 49.0637 237.292 49.107L237.162 50.147C237.049 50.1037 236.941 50.0733 236.837 50.056C236.733 50.0387 236.62 50.03 236.499 50.03C236.282 50.03 236.109 50.0647 235.979 50.134C235.849 50.1947 235.745 50.2857 235.667 50.407C235.597 50.5283 235.55 50.6757 235.524 50.849C235.506 51.0137 235.498 51.2043 235.498 51.421V52.838H236.889V53.852H235.485V59H234.315V53.852ZM243.349 59H242.179V58.051H242.153C242.006 58.3803 241.75 58.649 241.386 58.857C241.022 59.0563 240.602 59.156 240.125 59.156C239.822 59.156 239.536 59.1083 239.267 59.013C238.998 58.9263 238.76 58.7877 238.552 58.597C238.353 58.4063 238.192 58.1637 238.071 57.869C237.95 57.5657 237.889 57.2103 237.889 56.803V52.838H239.059V56.478C239.059 56.764 239.098 57.011 239.176 57.219C239.254 57.4183 239.358 57.583 239.488 57.713C239.618 57.8343 239.765 57.9253 239.93 57.986C240.103 58.038 240.281 58.064 240.463 58.064C240.706 58.064 240.931 58.025 241.139 57.947C241.347 57.869 241.529 57.7477 241.685 57.583C241.841 57.4097 241.962 57.193 242.049 56.933C242.136 56.673 242.179 56.3653 242.179 56.01V52.838H243.349V59ZM244.904 49.172H246.074V59H244.904V49.172ZM248.442 60.716H247.376L248.273 57.518H249.534L248.442 60.716ZM257.574 53.852H255.897V56.647C255.897 56.8203 255.901 56.9937 255.91 57.167C255.919 57.3317 255.949 57.4833 256.001 57.622C256.062 57.752 256.148 57.8603 256.261 57.947C256.382 58.025 256.556 58.064 256.781 58.064C256.92 58.064 257.063 58.051 257.21 58.025C257.357 57.999 257.492 57.9513 257.613 57.882V58.948C257.474 59.026 257.292 59.078 257.067 59.104C256.85 59.1387 256.681 59.156 256.56 59.156C256.109 59.156 255.758 59.0953 255.507 58.974C255.264 58.844 255.082 58.6793 254.961 58.48C254.848 58.2807 254.779 58.0597 254.753 57.817C254.736 57.5657 254.727 57.3143 254.727 57.063V53.852H253.375V52.838H254.727V51.109H255.897V52.838H257.574V53.852ZM258.783 49.172H259.953V53.787H259.979C260.127 53.4577 260.382 53.1933 260.746 52.994C261.11 52.786 261.531 52.682 262.007 52.682C262.302 52.682 262.584 52.7297 262.852 52.825C263.13 52.9117 263.368 53.0503 263.567 53.241C263.775 53.4317 263.94 53.6787 264.061 53.982C264.183 54.2767 264.243 54.6277 264.243 55.035V59H263.073V55.36C263.073 55.074 263.034 54.8313 262.956 54.632C262.878 54.424 262.774 54.2593 262.644 54.138C262.514 54.008 262.363 53.917 262.189 53.865C262.025 53.8043 261.851 53.774 261.669 53.774C261.427 53.774 261.201 53.813 260.993 53.891C260.785 53.969 260.603 54.0947 260.447 54.268C260.291 54.4327 260.17 54.645 260.083 54.905C259.997 55.165 259.953 55.4727 259.953 55.828V59H258.783V49.172ZM266.591 56.348C266.591 56.6167 266.647 56.8637 266.76 57.089C266.881 57.3057 267.037 57.492 267.228 57.648C267.419 57.804 267.64 57.9253 267.891 58.012C268.142 58.0987 268.402 58.142 268.671 58.142C269.035 58.142 269.351 58.0597 269.62 57.895C269.889 57.7217 270.136 57.4963 270.361 57.219L271.245 57.895C270.595 58.7357 269.685 59.156 268.515 59.156C268.03 59.156 267.588 59.0737 267.189 58.909C266.799 58.7443 266.465 58.519 266.188 58.233C265.919 57.9383 265.711 57.596 265.564 57.206C265.417 56.8073 265.343 56.3783 265.343 55.919C265.343 55.4597 265.421 55.035 265.577 54.645C265.742 54.2463 265.963 53.904 266.24 53.618C266.526 53.3233 266.864 53.0937 267.254 52.929C267.644 52.7643 268.069 52.682 268.528 52.682C269.074 52.682 269.533 52.7773 269.906 52.968C270.287 53.1587 270.599 53.41 270.842 53.722C271.085 54.0253 271.258 54.372 271.362 54.762C271.475 55.1433 271.531 55.5333 271.531 55.932V56.348H266.591ZM270.283 55.412C270.274 55.152 270.231 54.9137 270.153 54.697C270.084 54.4803 269.975 54.294 269.828 54.138C269.681 53.9733 269.494 53.8477 269.269 53.761C269.052 53.6657 268.797 53.618 268.502 53.618C268.216 53.618 267.952 53.6743 267.709 53.787C267.475 53.891 267.276 54.0297 267.111 54.203C266.946 54.3763 266.816 54.5713 266.721 54.788C266.634 54.996 266.591 55.204 266.591 55.412H270.283ZM282.124 61.964H280.954V58.116H280.928C280.72 58.4367 280.421 58.6923 280.031 58.883C279.641 59.065 279.225 59.156 278.783 59.156C278.306 59.156 277.873 59.0737 277.483 58.909C277.102 58.7443 276.772 58.519 276.495 58.233C276.226 57.9383 276.018 57.596 275.871 57.206C275.724 56.8073 275.65 56.3783 275.65 55.919C275.65 55.4683 275.724 55.048 275.871 54.658C276.018 54.2593 276.226 53.9127 276.495 53.618C276.772 53.3233 277.102 53.0937 277.483 52.929C277.873 52.7643 278.306 52.682 278.783 52.682C279.199 52.682 279.602 52.773 279.992 52.955C280.391 53.137 280.703 53.3927 280.928 53.722H280.954V52.838H282.124V61.964ZM278.926 53.774C278.614 53.774 278.332 53.8303 278.081 53.943C277.83 54.047 277.617 54.1943 277.444 54.385C277.271 54.567 277.136 54.7923 277.041 55.061C276.946 55.321 276.898 55.607 276.898 55.919C276.898 56.231 276.946 56.5213 277.041 56.79C277.136 57.05 277.271 57.2753 277.444 57.466C277.617 57.648 277.83 57.7953 278.081 57.908C278.332 58.012 278.614 58.064 278.926 58.064C279.238 58.064 279.52 58.012 279.771 57.908C280.022 57.7953 280.235 57.648 280.408 57.466C280.581 57.2753 280.716 57.05 280.811 56.79C280.906 56.5213 280.954 56.231 280.954 55.919C280.954 55.607 280.906 55.321 280.811 55.061C280.716 54.7923 280.581 54.567 280.408 54.385C280.235 54.1943 280.022 54.047 279.771 53.943C279.52 53.8303 279.238 53.774 278.926 53.774ZM289.056 59H287.886V58.051H287.86C287.713 58.3803 287.457 58.649 287.093 58.857C286.729 59.0563 286.309 59.156 285.832 59.156C285.529 59.156 285.243 59.1083 284.974 59.013C284.705 58.9263 284.467 58.7877 284.259 58.597C284.06 58.4063 283.899 58.1637 283.778 57.869C283.657 57.5657 283.596 57.2103 283.596 56.803V52.838H284.766V56.478C284.766 56.764 284.805 57.011 284.883 57.219C284.961 57.4183 285.065 57.583 285.195 57.713C285.325 57.8343 285.472 57.9253 285.637 57.986C285.81 58.038 285.988 58.064 286.17 58.064C286.413 58.064 286.638 58.025 286.846 57.947C287.054 57.869 287.236 57.7477 287.392 57.583C287.548 57.4097 287.669 57.193 287.756 56.933C287.843 56.673 287.886 56.3653 287.886 56.01V52.838H289.056V59ZM290.546 53.592C290.875 53.2887 291.256 53.0633 291.69 52.916C292.123 52.76 292.556 52.682 292.99 52.682C293.44 52.682 293.826 52.7383 294.147 52.851C294.476 52.9637 294.745 53.1153 294.953 53.306C295.161 53.4967 295.312 53.7177 295.408 53.969C295.512 54.2117 295.564 54.4673 295.564 54.736V57.882C295.564 58.0987 295.568 58.298 295.577 58.48C295.585 58.662 295.598 58.8353 295.616 59H294.576C294.55 58.688 294.537 58.376 294.537 58.064H294.511C294.251 58.4627 293.943 58.7443 293.588 58.909C293.232 59.0737 292.821 59.156 292.353 59.156C292.067 59.156 291.794 59.117 291.534 59.039C291.274 58.961 291.044 58.844 290.845 58.688C290.654 58.532 290.502 58.3413 290.39 58.116C290.277 57.882 290.221 57.6133 290.221 57.31C290.221 56.9113 290.307 56.5777 290.481 56.309C290.663 56.0403 290.905 55.8237 291.209 55.659C291.521 55.4857 291.88 55.3643 292.288 55.295C292.704 55.217 293.146 55.178 293.614 55.178H294.472V54.918C294.472 54.762 294.441 54.606 294.381 54.45C294.32 54.294 294.229 54.1553 294.108 54.034C293.986 53.904 293.835 53.8043 293.653 53.735C293.471 53.657 293.254 53.618 293.003 53.618C292.777 53.618 292.578 53.6397 292.405 53.683C292.24 53.7263 292.088 53.7827 291.95 53.852C291.811 53.9127 291.685 53.9863 291.573 54.073C291.46 54.1597 291.352 54.242 291.248 54.32L290.546 53.592ZM293.848 56.036C293.57 56.036 293.284 56.0533 292.99 56.088C292.704 56.114 292.439 56.1703 292.197 56.257C291.963 56.3437 291.768 56.465 291.612 56.621C291.464 56.777 291.391 56.9763 291.391 57.219C291.391 57.5743 291.508 57.83 291.742 57.986C291.984 58.142 292.309 58.22 292.717 58.22C293.037 58.22 293.31 58.168 293.536 58.064C293.761 57.9513 293.943 57.8083 294.082 57.635C294.22 57.4617 294.32 57.271 294.381 57.063C294.441 56.8463 294.472 56.634 294.472 56.426V56.036H293.848ZM297.052 49.172H298.222V59H297.052V49.172ZM299.875 52.838H301.045V59H299.875V52.838ZM299.602 50.628C299.602 50.394 299.684 50.1947 299.849 50.03C300.022 49.8567 300.226 49.77 300.46 49.77C300.694 49.77 300.893 49.8567 301.058 50.03C301.231 50.1947 301.318 50.394 301.318 50.628C301.318 50.862 301.231 51.0657 301.058 51.239C300.893 51.4037 300.694 51.486 300.46 51.486C300.226 51.486 300.022 51.4037 299.849 51.239C299.684 51.0657 299.602 50.862 299.602 50.628ZM305.909 53.852H304.232V56.647C304.232 56.8203 304.236 56.9937 304.245 57.167C304.254 57.3317 304.284 57.4833 304.336 57.622C304.397 57.752 304.483 57.8603 304.596 57.947C304.717 58.025 304.891 58.064 305.116 58.064C305.255 58.064 305.398 58.051 305.545 58.025C305.692 57.999 305.827 57.9513 305.948 57.882V58.948C305.809 59.026 305.627 59.078 305.402 59.104C305.185 59.1387 305.016 59.156 304.895 59.156C304.444 59.156 304.093 59.0953 303.842 58.974C303.599 58.844 303.417 58.6793 303.296 58.48C303.183 58.2807 303.114 58.0597 303.088 57.817C303.071 57.5657 303.062 57.3143 303.062 57.063V53.852H301.71V52.838H303.062V51.109H304.232V52.838H305.909V53.852ZM306.378 52.838H307.73L309.563 57.648H309.589L311.331 52.838H312.592L309.667 60.326C309.563 60.5947 309.454 60.8373 309.342 61.054C309.229 61.2793 309.095 61.47 308.939 61.626C308.783 61.782 308.592 61.9033 308.367 61.99C308.15 62.0767 307.881 62.12 307.561 62.12C307.387 62.12 307.21 62.107 307.028 62.081C306.854 62.0637 306.685 62.0203 306.521 61.951L306.664 60.885C306.898 60.9803 307.132 61.028 307.366 61.028C307.548 61.028 307.699 61.002 307.821 60.95C307.951 60.9067 308.059 60.8373 308.146 60.742C308.241 60.6553 308.319 60.5513 308.38 60.43C308.44 60.3087 308.501 60.17 308.562 60.014L308.939 59.039L306.378 52.838ZM134.833 73.919C134.833 74.231 134.881 74.5213 134.976 74.79C135.071 75.05 135.206 75.2753 135.379 75.466C135.552 75.648 135.765 75.7953 136.016 75.908C136.267 76.012 136.549 76.064 136.861 76.064C137.173 76.064 137.455 76.012 137.706 75.908C137.957 75.7953 138.17 75.648 138.343 75.466C138.516 75.2753 138.651 75.05 138.746 74.79C138.841 74.5213 138.889 74.231 138.889 73.919C138.889 73.607 138.841 73.321 138.746 73.061C138.651 72.7923 138.516 72.567 138.343 72.385C138.17 72.1943 137.957 72.047 137.706 71.943C137.455 71.8303 137.173 71.774 136.861 71.774C136.549 71.774 136.267 71.8303 136.016 71.943C135.765 72.047 135.552 72.1943 135.379 72.385C135.206 72.567 135.071 72.7923 134.976 73.061C134.881 73.321 134.833 73.607 134.833 73.919ZM133.585 73.919C133.585 73.4683 133.667 73.048 133.832 72.658C134.005 72.268 134.239 71.9257 134.534 71.631C134.829 71.3363 135.175 71.1067 135.574 70.942C135.973 70.7687 136.402 70.682 136.861 70.682C137.32 70.682 137.749 70.7687 138.148 70.942C138.547 71.1067 138.893 71.3363 139.188 71.631C139.483 71.9257 139.712 72.268 139.877 72.658C140.05 73.048 140.137 73.4683 140.137 73.919C140.137 74.3697 140.05 74.7943 139.877 75.193C139.712 75.583 139.483 75.9253 139.188 76.22C138.893 76.506 138.547 76.7357 138.148 76.909C137.749 77.0737 137.32 77.156 136.861 77.156C136.402 77.156 135.973 77.0737 135.574 76.909C135.175 76.7357 134.829 76.506 134.534 76.22C134.239 75.9253 134.005 75.583 133.832 75.193C133.667 74.7943 133.585 74.3697 133.585 73.919ZM141.758 71.852H140.432V70.838H141.758V69.46C141.758 68.6367 141.914 68.0257 142.226 67.627C142.546 67.2197 143.092 67.016 143.864 67.016C143.994 67.016 144.128 67.0203 144.267 67.029C144.414 67.0377 144.57 67.0637 144.735 67.107L144.605 68.147C144.492 68.1037 144.384 68.0733 144.28 68.056C144.176 68.0387 144.063 68.03 143.942 68.03C143.725 68.03 143.552 68.0647 143.422 68.134C143.292 68.1947 143.188 68.2857 143.11 68.407C143.04 68.5283 142.993 68.6757 142.967 68.849C142.949 69.0137 142.941 69.2043 142.941 69.421V70.838H144.332V71.852H142.928V77H141.758V71.852ZM149.599 73.919C149.599 74.231 149.647 74.5213 149.742 74.79C149.837 75.05 149.972 75.2753 150.145 75.466C150.318 75.648 150.531 75.7953 150.782 75.908C151.033 76.012 151.315 76.064 151.627 76.064C151.939 76.064 152.221 76.012 152.472 75.908C152.723 75.7953 152.936 75.648 153.109 75.466C153.282 75.2753 153.417 75.05 153.512 74.79C153.607 74.5213 153.655 74.231 153.655 73.919C153.655 73.607 153.607 73.321 153.512 73.061C153.417 72.7923 153.282 72.567 153.109 72.385C152.936 72.1943 152.723 72.047 152.472 71.943C152.221 71.8303 151.939 71.774 151.627 71.774C151.315 71.774 151.033 71.8303 150.782 71.943C150.531 72.047 150.318 72.1943 150.145 72.385C149.972 72.567 149.837 72.7923 149.742 73.061C149.647 73.321 149.599 73.607 149.599 73.919ZM148.351 73.919C148.351 73.4683 148.433 73.048 148.598 72.658C148.771 72.268 149.005 71.9257 149.3 71.631C149.595 71.3363 149.941 71.1067 150.34 70.942C150.739 70.7687 151.168 70.682 151.627 70.682C152.086 70.682 152.515 70.7687 152.914 70.942C153.313 71.1067 153.659 71.3363 153.954 71.631C154.249 71.9257 154.478 72.268 154.643 72.658C154.816 73.048 154.903 73.4683 154.903 73.919C154.903 74.3697 154.816 74.7943 154.643 75.193C154.478 75.583 154.249 75.9253 153.954 76.22C153.659 76.506 153.313 76.7357 152.914 76.909C152.515 77.0737 152.086 77.156 151.627 77.156C151.168 77.156 150.739 77.0737 150.34 76.909C149.941 76.7357 149.595 76.506 149.3 76.22C149.005 75.9253 148.771 75.583 148.598 75.193C148.433 74.7943 148.351 74.3697 148.351 73.919ZM161.529 77H160.359V76.051H160.333C160.185 76.3803 159.93 76.649 159.566 76.857C159.202 77.0563 158.781 77.156 158.305 77.156C158.001 77.156 157.715 77.1083 157.447 77.013C157.178 76.9263 156.94 76.7877 156.732 76.597C156.532 76.4063 156.372 76.1637 156.251 75.869C156.129 75.5657 156.069 75.2103 156.069 74.803V70.838H157.239V74.478C157.239 74.764 157.278 75.011 157.356 75.219C157.434 75.4183 157.538 75.583 157.668 75.713C157.798 75.8343 157.945 75.9253 158.11 75.986C158.283 76.038 158.461 76.064 158.643 76.064C158.885 76.064 159.111 76.025 159.319 75.947C159.527 75.869 159.709 75.7477 159.865 75.583C160.021 75.4097 160.142 75.193 160.229 74.933C160.315 74.673 160.359 74.3653 160.359 74.01V70.838H161.529V77ZM162.992 70.838H164.162V71.787H164.188C164.266 71.6223 164.37 71.475 164.5 71.345C164.63 71.2063 164.773 71.0893 164.929 70.994C165.094 70.8987 165.272 70.825 165.462 70.773C165.653 70.7123 165.844 70.682 166.034 70.682C166.225 70.682 166.398 70.708 166.554 70.76L166.502 72.021C166.407 71.995 166.312 71.9733 166.216 71.956C166.121 71.9387 166.026 71.93 165.93 71.93C165.358 71.93 164.921 72.0903 164.617 72.411C164.314 72.7317 164.162 73.23 164.162 73.906V77H162.992V70.838ZM170.913 67.172H172.083V77H170.913V67.172ZM173.736 70.838H174.906V77H173.736V70.838ZM173.463 68.628C173.463 68.394 173.545 68.1947 173.71 68.03C173.883 67.8567 174.087 67.77 174.321 67.77C174.555 67.77 174.754 67.8567 174.919 68.03C175.092 68.1947 175.179 68.394 175.179 68.628C175.179 68.862 175.092 69.0657 174.919 69.239C174.754 69.4037 174.555 69.486 174.321 69.486C174.087 69.486 173.883 69.4037 173.71 69.239C173.545 69.0657 173.463 68.862 173.463 68.628ZM176.923 71.852H175.597V70.838H176.923V69.46C176.923 68.6367 177.079 68.0257 177.391 67.627C177.712 67.2197 178.258 67.016 179.029 67.016C179.159 67.016 179.294 67.0203 179.432 67.029C179.58 67.0377 179.736 67.0637 179.9 67.107L179.77 68.147C179.658 68.1037 179.549 68.0733 179.445 68.056C179.341 68.0387 179.229 68.03 179.107 68.03C178.891 68.03 178.717 68.0647 178.587 68.134C178.457 68.1947 178.353 68.2857 178.275 68.407C178.206 68.5283 178.158 68.6757 178.132 68.849C178.115 69.0137 178.106 69.2043 178.106 69.421V70.838H179.497V71.852H178.093V77H176.923V71.852ZM181.381 74.348C181.381 74.6167 181.438 74.8637 181.55 75.089C181.672 75.3057 181.828 75.492 182.018 75.648C182.209 75.804 182.43 75.9253 182.681 76.012C182.933 76.0987 183.193 76.142 183.461 76.142C183.825 76.142 184.142 76.0597 184.41 75.895C184.679 75.7217 184.926 75.4963 185.151 75.219L186.035 75.895C185.385 76.7357 184.475 77.156 183.305 77.156C182.82 77.156 182.378 77.0737 181.979 76.909C181.589 76.7443 181.256 76.519 180.978 76.233C180.71 75.9383 180.502 75.596 180.354 75.206C180.207 74.8073 180.133 74.3783 180.133 73.919C180.133 73.4597 180.211 73.035 180.367 72.645C180.532 72.2463 180.753 71.904 181.03 71.618C181.316 71.3233 181.654 71.0937 182.044 70.929C182.434 70.7643 182.859 70.682 183.318 70.682C183.864 70.682 184.324 70.7773 184.696 70.968C185.078 71.1587 185.39 71.41 185.632 71.722C185.875 72.0253 186.048 72.372 186.152 72.762C186.265 73.1433 186.321 73.5333 186.321 73.932V74.348H181.381ZM185.073 73.412C185.065 73.152 185.021 72.9137 184.943 72.697C184.874 72.4803 184.766 72.294 184.618 72.138C184.471 71.9733 184.285 71.8477 184.059 71.761C183.843 71.6657 183.587 71.618 183.292 71.618C183.006 71.618 182.742 71.6743 182.499 71.787C182.265 71.891 182.066 72.0297 181.901 72.203C181.737 72.3763 181.607 72.5713 181.511 72.788C181.425 72.996 181.381 73.204 181.381 73.412H185.073ZM190.83 70.838H192V77H190.83V70.838ZM190.557 68.628C190.557 68.394 190.639 68.1947 190.804 68.03C190.977 67.8567 191.181 67.77 191.415 67.77C191.649 67.77 191.848 67.8567 192.013 68.03C192.186 68.1947 192.273 68.394 192.273 68.628C192.273 68.862 192.186 69.0657 192.013 69.239C191.848 69.4037 191.649 69.486 191.415 69.486C191.181 69.486 190.977 69.4037 190.804 69.239C190.639 69.0657 190.557 68.862 190.557 68.628ZM196.838 72.385C196.699 72.2117 196.526 72.0687 196.318 71.956C196.119 71.8347 195.872 71.774 195.577 71.774C195.3 71.774 195.057 71.8347 194.849 71.956C194.65 72.0687 194.55 72.2377 194.55 72.463C194.55 72.645 194.606 72.7923 194.719 72.905C194.84 73.0177 194.979 73.1087 195.135 73.178C195.3 73.2473 195.473 73.2993 195.655 73.334C195.837 73.3687 195.993 73.399 196.123 73.425C196.374 73.4857 196.608 73.5593 196.825 73.646C197.05 73.7327 197.241 73.8453 197.397 73.984C197.562 74.1227 197.687 74.2917 197.774 74.491C197.869 74.6903 197.917 74.933 197.917 75.219C197.917 75.5657 197.843 75.8647 197.696 76.116C197.549 76.3587 197.358 76.558 197.124 76.714C196.89 76.87 196.621 76.9827 196.318 77.052C196.023 77.1213 195.724 77.156 195.421 77.156C194.91 77.156 194.459 77.078 194.069 76.922C193.688 76.766 193.345 76.48 193.042 76.064L193.926 75.336C194.117 75.5267 194.329 75.6957 194.563 75.843C194.797 75.9903 195.083 76.064 195.421 76.064C195.568 76.064 195.716 76.051 195.863 76.025C196.019 75.9903 196.153 75.9427 196.266 75.882C196.387 75.8127 196.483 75.7303 196.552 75.635C196.63 75.531 196.669 75.414 196.669 75.284C196.669 75.1107 196.613 74.9677 196.5 74.855C196.396 74.7423 196.266 74.6557 196.11 74.595C195.963 74.5257 195.802 74.4737 195.629 74.439C195.464 74.3957 195.317 74.361 195.187 74.335C194.936 74.2743 194.697 74.205 194.472 74.127C194.247 74.049 194.047 73.945 193.874 73.815C193.701 73.685 193.562 73.5203 193.458 73.321C193.354 73.1217 193.302 72.8747 193.302 72.58C193.302 72.2593 193.367 71.982 193.497 71.748C193.636 71.5053 193.813 71.306 194.03 71.15C194.255 70.994 194.507 70.877 194.784 70.799C195.07 70.721 195.356 70.682 195.642 70.682C196.058 70.682 196.457 70.76 196.838 70.916C197.219 71.072 197.523 71.332 197.748 71.696L196.838 72.385ZM202.448 67.172H203.618V77H202.448V67.172ZM205.271 70.838H206.441V77H205.271V70.838ZM204.998 68.628C204.998 68.394 205.08 68.1947 205.245 68.03C205.418 67.8567 205.622 67.77 205.856 67.77C206.09 67.77 206.289 67.8567 206.454 68.03C206.627 68.1947 206.714 68.394 206.714 68.628C206.714 68.862 206.627 69.0657 206.454 69.239C206.289 69.4037 206.09 69.486 205.856 69.486C205.622 69.486 205.418 69.4037 205.245 69.239C205.08 69.0657 204.998 68.862 204.998 68.628ZM208.003 67.172H209.173V73.516L211.825 70.851H213.45L210.577 73.646L213.697 77H212.033L209.173 73.802V77H208.003V67.172ZM215.328 74.348C215.328 74.6167 215.384 74.8637 215.497 75.089C215.618 75.3057 215.774 75.492 215.965 75.648C216.156 75.804 216.377 75.9253 216.628 76.012C216.879 76.0987 217.139 76.142 217.408 76.142C217.772 76.142 218.088 76.0597 218.357 75.895C218.626 75.7217 218.873 75.4963 219.098 75.219L219.982 75.895C219.332 76.7357 218.422 77.156 217.252 77.156C216.767 77.156 216.325 77.0737 215.926 76.909C215.536 76.7443 215.202 76.519 214.925 76.233C214.656 75.9383 214.448 75.596 214.301 75.206C214.154 74.8073 214.08 74.3783 214.08 73.919C214.08 73.4597 214.158 73.035 214.314 72.645C214.479 72.2463 214.7 71.904 214.977 71.618C215.263 71.3233 215.601 71.0937 215.991 70.929C216.381 70.7643 216.806 70.682 217.265 70.682C217.811 70.682 218.27 70.7773 218.643 70.968C219.024 71.1587 219.336 71.41 219.579 71.722C219.822 72.0253 219.995 72.372 220.099 72.762C220.212 73.1433 220.268 73.5333 220.268 73.932V74.348H215.328ZM219.02 73.412C219.011 73.152 218.968 72.9137 218.89 72.697C218.821 72.4803 218.712 72.294 218.565 72.138C218.418 71.9733 218.231 71.8477 218.006 71.761C217.789 71.6657 217.534 71.618 217.239 71.618C216.953 71.618 216.689 71.6743 216.446 71.787C216.212 71.891 216.013 72.0297 215.848 72.203C215.683 72.3763 215.553 72.5713 215.458 72.788C215.371 72.996 215.328 73.204 215.328 73.412H219.02ZM221.459 67.172H222.629V77H221.459V67.172ZM223.45 70.838H224.802L226.635 75.648H226.661L228.403 70.838H229.664L226.739 78.326C226.635 78.5947 226.526 78.8373 226.414 79.054C226.301 79.2793 226.167 79.47 226.011 79.626C225.855 79.782 225.664 79.9033 225.439 79.99C225.222 80.0767 224.953 80.12 224.633 80.12C224.459 80.12 224.282 80.107 224.1 80.081C223.926 80.0637 223.757 80.0203 223.593 79.951L223.736 78.885C223.97 78.9803 224.204 79.028 224.438 79.028C224.62 79.028 224.771 79.002 224.893 78.95C225.023 78.9067 225.131 78.8373 225.218 78.742C225.313 78.6553 225.391 78.5513 225.452 78.43C225.512 78.3087 225.573 78.17 225.634 78.014L226.011 77.039L223.45 70.838ZM237.011 71.852H235.334V74.647C235.334 74.8203 235.338 74.9937 235.347 75.167C235.355 75.3317 235.386 75.4833 235.438 75.622C235.498 75.752 235.585 75.8603 235.698 75.947C235.819 76.025 235.992 76.064 236.218 76.064C236.356 76.064 236.499 76.051 236.647 76.025C236.794 75.999 236.928 75.9513 237.05 75.882V76.948C236.911 77.026 236.729 77.078 236.504 77.104C236.287 77.1387 236.118 77.156 235.997 77.156C235.546 77.156 235.195 77.0953 234.944 76.974C234.701 76.844 234.519 76.6793 234.398 76.48C234.285 76.2807 234.216 76.0597 234.19 75.817C234.172 75.5657 234.164 75.3143 234.164 75.063V71.852H232.812V70.838H234.164V69.109H235.334V70.838H237.011V71.852ZM239.169 73.919C239.169 74.231 239.217 74.5213 239.312 74.79C239.408 75.05 239.542 75.2753 239.715 75.466C239.889 75.648 240.101 75.7953 240.352 75.908C240.604 76.012 240.885 76.064 241.197 76.064C241.509 76.064 241.791 76.012 242.042 75.908C242.294 75.7953 242.506 75.648 242.679 75.466C242.853 75.2753 242.987 75.05 243.082 74.79C243.178 74.5213 243.225 74.231 243.225 73.919C243.225 73.607 243.178 73.321 243.082 73.061C242.987 72.7923 242.853 72.567 242.679 72.385C242.506 72.1943 242.294 72.047 242.042 71.943C241.791 71.8303 241.509 71.774 241.197 71.774C240.885 71.774 240.604 71.8303 240.352 71.943C240.101 72.047 239.889 72.1943 239.715 72.385C239.542 72.567 239.408 72.7923 239.312 73.061C239.217 73.321 239.169 73.607 239.169 73.919ZM237.921 73.919C237.921 73.4683 238.004 73.048 238.168 72.658C238.342 72.268 238.576 71.9257 238.87 71.631C239.165 71.3363 239.512 71.1067 239.91 70.942C240.309 70.7687 240.738 70.682 241.197 70.682C241.657 70.682 242.086 70.7687 242.484 70.942C242.883 71.1067 243.23 71.3363 243.524 71.631C243.819 71.9257 244.049 72.268 244.213 72.658C244.387 73.048 244.473 73.4683 244.473 73.919C244.473 74.3697 244.387 74.7943 244.213 75.193C244.049 75.583 243.819 75.9253 243.524 76.22C243.23 76.506 242.883 76.7357 242.484 76.909C242.086 77.0737 241.657 77.156 241.197 77.156C240.738 77.156 240.309 77.0737 239.91 76.909C239.512 76.7357 239.165 76.506 238.87 76.22C238.576 75.9253 238.342 75.583 238.168 75.193C238.004 74.7943 237.921 74.3697 237.921 73.919ZM252.233 72.385C252.095 72.2117 251.921 72.0687 251.713 71.956C251.514 71.8347 251.267 71.774 250.972 71.774C250.695 71.774 250.452 71.8347 250.244 71.956C250.045 72.0687 249.945 72.2377 249.945 72.463C249.945 72.645 250.002 72.7923 250.114 72.905C250.236 73.0177 250.374 73.1087 250.53 73.178C250.695 73.2473 250.868 73.2993 251.05 73.334C251.232 73.3687 251.388 73.399 251.518 73.425C251.77 73.4857 252.004 73.5593 252.22 73.646C252.446 73.7327 252.636 73.8453 252.792 73.984C252.957 74.1227 253.083 74.2917 253.169 74.491C253.265 74.6903 253.312 74.933 253.312 75.219C253.312 75.5657 253.239 75.8647 253.091 76.116C252.944 76.3587 252.753 76.558 252.519 76.714C252.285 76.87 252.017 76.9827 251.713 77.052C251.419 77.1213 251.12 77.156 250.816 77.156C250.305 77.156 249.854 77.078 249.464 76.922C249.083 76.766 248.741 76.48 248.437 76.064L249.321 75.336C249.512 75.5267 249.724 75.6957 249.958 75.843C250.192 75.9903 250.478 76.064 250.816 76.064C250.964 76.064 251.111 76.051 251.258 76.025C251.414 75.9903 251.549 75.9427 251.661 75.882C251.783 75.8127 251.878 75.7303 251.947 75.635C252.025 75.531 252.064 75.414 252.064 75.284C252.064 75.1107 252.008 74.9677 251.895 74.855C251.791 74.7423 251.661 74.6557 251.505 74.595C251.358 74.5257 251.198 74.4737 251.024 74.439C250.86 74.3957 250.712 74.361 250.582 74.335C250.331 74.2743 250.093 74.205 249.867 74.127C249.642 74.049 249.443 73.945 249.269 73.815C249.096 73.685 248.957 73.5203 248.853 73.321C248.749 73.1217 248.697 72.8747 248.697 72.58C248.697 72.2593 248.762 71.982 248.892 71.748C249.031 71.5053 249.209 71.306 249.425 71.15C249.651 70.994 249.902 70.877 250.179 70.799C250.465 70.721 250.751 70.682 251.037 70.682C251.453 70.682 251.852 70.76 252.233 70.916C252.615 71.072 252.918 71.332 253.143 71.696L252.233 72.385ZM259.894 77H258.724V76.051H258.698C258.55 76.3803 258.295 76.649 257.931 76.857C257.567 77.0563 257.146 77.156 256.67 77.156C256.366 77.156 256.08 77.1083 255.812 77.013C255.543 76.9263 255.305 76.7877 255.097 76.597C254.897 76.4063 254.737 76.1637 254.616 75.869C254.494 75.5657 254.434 75.2103 254.434 74.803V70.838H255.604V74.478C255.604 74.764 255.643 75.011 255.721 75.219C255.799 75.4183 255.903 75.583 256.033 75.713C256.163 75.8343 256.31 75.9253 256.475 75.986C256.648 76.038 256.826 76.064 257.008 76.064C257.25 76.064 257.476 76.025 257.684 75.947C257.892 75.869 258.074 75.7477 258.23 75.583C258.386 75.4097 258.507 75.193 258.594 74.933C258.68 74.673 258.724 74.3653 258.724 74.01V70.838H259.894V77ZM261.812 71.852H260.486V70.838H261.812V69.46C261.812 68.6367 261.968 68.0257 262.28 67.627C262.601 67.2197 263.147 67.016 263.918 67.016C264.048 67.016 264.183 67.0203 264.321 67.029C264.469 67.0377 264.625 67.0637 264.789 67.107L264.659 68.147C264.547 68.1037 264.438 68.0733 264.334 68.056C264.23 68.0387 264.118 68.03 263.996 68.03C263.78 68.03 263.606 68.0647 263.476 68.134C263.346 68.1947 263.242 68.2857 263.164 68.407C263.095 68.5283 263.047 68.6757 263.021 68.849C263.004 69.0137 262.995 69.2043 262.995 69.421V70.838H264.386V71.852H262.982V77H261.812V71.852ZM265.613 71.852H264.287V70.838H265.613V69.46C265.613 68.6367 265.769 68.0257 266.081 67.627C266.402 67.2197 266.948 67.016 267.719 67.016C267.849 67.016 267.983 67.0203 268.122 67.029C268.269 67.0377 268.425 67.0637 268.59 67.107L268.46 68.147C268.347 68.1037 268.239 68.0733 268.135 68.056C268.031 68.0387 267.918 68.03 267.797 68.03C267.58 68.03 267.407 68.0647 267.277 68.134C267.147 68.1947 267.043 68.2857 266.965 68.407C266.896 68.5283 266.848 68.6757 266.822 68.849C266.805 69.0137 266.796 69.2043 266.796 69.421V70.838H268.187V71.852H266.783V77H265.613V71.852ZM270.071 74.348C270.071 74.6167 270.127 74.8637 270.24 75.089C270.361 75.3057 270.517 75.492 270.708 75.648C270.899 75.804 271.12 75.9253 271.371 76.012C271.622 76.0987 271.882 76.142 272.151 76.142C272.515 76.142 272.831 76.0597 273.1 75.895C273.369 75.7217 273.616 75.4963 273.841 75.219L274.725 75.895C274.075 76.7357 273.165 77.156 271.995 77.156C271.51 77.156 271.068 77.0737 270.669 76.909C270.279 76.7443 269.945 76.519 269.668 76.233C269.399 75.9383 269.191 75.596 269.044 75.206C268.897 74.8073 268.823 74.3783 268.823 73.919C268.823 73.4597 268.901 73.035 269.057 72.645C269.222 72.2463 269.443 71.904 269.72 71.618C270.006 71.3233 270.344 71.0937 270.734 70.929C271.124 70.7643 271.549 70.682 272.008 70.682C272.554 70.682 273.013 70.7773 273.386 70.968C273.767 71.1587 274.079 71.41 274.322 71.722C274.565 72.0253 274.738 72.372 274.842 72.762C274.955 73.1433 275.011 73.5333 275.011 73.932V74.348H270.071ZM273.763 73.412C273.754 73.152 273.711 72.9137 273.633 72.697C273.564 72.4803 273.455 72.294 273.308 72.138C273.161 71.9733 272.974 71.8477 272.749 71.761C272.532 71.6657 272.277 71.618 271.982 71.618C271.696 71.618 271.432 71.6743 271.189 71.787C270.955 71.891 270.756 72.0297 270.591 72.203C270.426 72.3763 270.296 72.5713 270.201 72.788C270.114 72.996 270.071 73.204 270.071 73.412H273.763ZM276.111 70.838H277.281V71.787H277.307C277.385 71.6223 277.489 71.475 277.619 71.345C277.749 71.2063 277.892 71.0893 278.048 70.994C278.212 70.8987 278.39 70.825 278.581 70.773C278.771 70.7123 278.962 70.682 279.153 70.682C279.343 70.682 279.517 70.708 279.673 70.76L279.621 72.021C279.525 71.995 279.43 71.9733 279.335 71.956C279.239 71.9387 279.144 71.93 279.049 71.93C278.477 71.93 278.039 72.0903 277.736 72.411C277.432 72.7317 277.281 73.23 277.281 73.906V77H276.111V70.838ZM280.352 77.078C280.118 77.078 279.914 76.9957 279.741 76.831C279.576 76.6577 279.494 76.454 279.494 76.22C279.494 75.986 279.576 75.7867 279.741 75.622C279.914 75.4487 280.118 75.362 280.352 75.362C280.586 75.362 280.785 75.4487 280.95 75.622C281.123 75.7867 281.21 75.986 281.21 76.22C281.21 76.454 281.123 76.6577 280.95 76.831C280.785 76.9957 280.586 77.078 280.352 77.078Z" fill="white"/>
<path d="M56.676 69.7404C56.5366 69.7404 56.3972 69.7325 56.2578 69.7246C53.5475 69.5432 51.6347 67.0191 51.5573 66.9087C51.4644 66.7904 51.4876 66.6168 51.6115 66.5222C51.7276 66.4275 51.898 66.4512 51.9909 66.5774C52.0064 66.6011 53.8417 69.0147 56.2966 69.1724C59.216 69.3617 60.7726 67.2557 60.788 67.2321C60.8732 67.1059 61.0436 67.0822 61.1675 67.169C61.2914 67.2557 61.3146 67.4293 61.2294 67.5555C61.152 67.658 59.611 69.7404 56.676 69.7404Z" fill="white"/>
<path d="M87.4811 85.555C84.2442 85.555 81.8358 83.1651 81.7351 83.0547C81.6267 82.9442 81.6267 82.7707 81.7351 82.6682C81.8435 82.5577 82.0139 82.5577 82.1146 82.6682C82.1378 82.6918 84.6933 85.2159 87.907 84.9871C91.1363 84.7584 95.0392 82.7076 95.4187 77.6832C95.589 75.4194 94.9463 73.3765 93.5524 71.7754C92.2746 70.3161 90.5013 69.3696 88.5575 69.1093C84.8249 68.6203 82.587 70.9866 82.5637 71.0103C82.4631 71.1207 82.2927 71.1286 82.1843 71.026C82.0759 70.9235 82.0681 70.75 82.1688 70.6395C82.2694 70.537 84.6004 68.0445 88.6272 68.573C90.7026 68.8412 92.5999 69.8508 93.9628 71.4204C95.4574 73.132 96.1466 75.3169 95.9685 77.7384C95.5658 83.1099 91.3995 85.3026 87.9535 85.5471C87.7909 85.5471 87.6283 85.555 87.4811 85.555Z" fill="white"/>
<path d="M86.9858 79.2685C86.8541 79.2685 86.7147 79.237 86.5831 79.1739C86.374 79.0792 85.6925 78.6691 85.7235 77.4623C85.7313 77.3045 85.7467 77.1547 85.7855 77.0127C85.073 76.8076 84.4535 77.3282 84.4225 77.3519C84.3064 77.4465 84.136 77.4386 84.0431 77.3203C83.9502 77.202 83.9579 77.0285 84.0741 76.9338C84.4225 76.6262 85.2047 76.2318 86.0255 76.5079C86.1262 76.358 86.2579 76.2239 86.4127 76.1056C86.9935 75.6639 87.7912 75.5614 88.2558 75.6876C88.8366 75.8453 90.0291 76.5079 90.7958 77.9829C90.8655 78.117 90.8113 78.2826 90.6796 78.3536C90.548 78.4246 90.3854 78.3694 90.3157 78.2353C89.6342 76.918 88.581 76.3343 88.1164 76.216C87.8221 76.1372 87.1794 76.2081 86.738 76.5473C86.6528 76.6104 86.5754 76.6893 86.5134 76.7682C86.5289 76.7839 86.5521 76.7997 86.5676 76.8076C87.4659 77.4938 87.675 78.0617 87.6905 78.4167C87.706 78.6849 87.613 78.9294 87.4349 79.095C87.3265 79.2054 87.1639 79.2685 86.9858 79.2685ZM86.2888 77.2809C86.2811 77.344 86.2733 77.415 86.2656 77.4781C86.2501 78.1643 86.5289 78.5508 86.7999 78.6691C86.9471 78.7401 87.0477 78.7085 87.0632 78.6927C87.1252 78.6296 87.1561 78.5508 87.1484 78.4403C87.1484 78.2905 87.0477 77.8724 86.2888 77.2809Z" fill="white"/>
<path d="M100.197 97C100.042 97 99.9257 96.8738 99.9257 96.724C99.9257 96.6688 99.9644 95.8958 100.081 93.5137C100.476 85.5945 101.529 64.5661 101.459 62.1288C101.42 60.7248 101.32 57.4357 99.9954 53.6181C98.3769 48.9486 95.473 45.0127 91.3609 41.9128C86.8152 38.4896 82.1844 36.6281 77.1895 36.2337C73.0233 35.9025 68.617 36.5808 63.3279 38.3634C59.6728 39.5939 56.459 41.7787 53.7874 44.8628C51.6036 47.379 50.3336 49.8478 49.6521 51.1729C49.5514 51.3701 49.4663 51.5357 49.3888 51.6777C48.3356 53.6496 45.7337 63.4776 45.7105 63.5802C45.695 63.6433 44.0223 70.0007 43.3098 73.5738C42.7368 76.4212 42.5897 78.5667 42.5509 79.3554C42.5509 79.4343 42.5897 79.5053 42.6516 79.5368C43.1008 79.7892 44.2469 80.4281 45.1219 80.8304C46.632 81.5166 46.6784 82.897 46.57 83.875C46.4461 85.1055 45.997 94.0343 45.9892 94.1289C45.9815 94.2788 45.8576 94.3971 45.7027 94.3892C45.5556 94.3814 45.4394 94.2552 45.4472 94.0974C45.4627 93.7267 45.9041 85.0582 46.028 83.8119C46.1673 82.4947 45.8266 81.7533 44.8973 81.3273C43.999 80.9172 42.8375 80.2704 42.3806 80.0101C42.1328 79.8681 41.9856 79.6078 42.0011 79.316C42.0398 78.5114 42.187 76.3423 42.7678 73.4555C43.4957 69.8745 45.1684 63.5013 45.1839 63.4382C45.2923 63.028 47.8245 53.4446 48.9087 51.4174C48.9784 51.2833 49.0636 51.1177 49.1642 50.9205C49.8612 49.5717 51.1467 47.0713 53.3769 44.5C56.1183 41.3449 59.4017 39.1048 63.1575 37.8428C68.5163 36.0444 72.9923 35.3582 77.236 35.6895C82.3315 36.0918 87.0631 37.9848 91.6862 41.4711C95.8834 44.642 98.8571 48.6647 100.514 53.4367C101.869 57.3332 101.97 60.6854 102.009 62.1131C102.079 64.574 101.025 85.6182 100.63 93.5453C100.537 95.3436 100.476 96.6451 100.476 96.724C100.468 96.8817 100.344 97 100.197 97Z" fill="white"/>
<path d="M66.0772 30.7282C65.9843 30.7282 65.8991 30.6808 65.8449 30.5941L63.6456 26.9105C63.5681 26.7765 63.6069 26.6108 63.7385 26.5319C63.8702 26.4531 64.0328 26.4925 64.1102 26.6266L66.3095 30.3101C66.3869 30.4442 66.3482 30.6098 66.2166 30.6887C66.1779 30.7203 66.1314 30.7282 66.0772 30.7282Z" fill="white"/>
<path d="M73.9063 28.8903C73.7592 28.8903 73.6353 28.7641 73.6353 28.6143V24.2761C73.6353 24.1262 73.7592 24 73.9063 24C74.0534 24 74.1773 24.1262 74.1773 24.2761V28.6143C74.1773 28.7641 74.0534 28.8903 73.9063 28.8903Z" fill="white"/>
<path d="M81.1005 30.7282C81.054 30.7282 81.0075 30.7203 80.9688 30.6966C80.8372 30.6256 80.7907 30.4521 80.8681 30.318L83.0674 26.3111C83.1371 26.177 83.3075 26.1297 83.4391 26.2086C83.5708 26.2796 83.6172 26.4531 83.5398 26.5872L81.3405 30.5941C81.2863 30.6808 81.1934 30.7282 81.1005 30.7282Z" fill="white"/>
<path d="M309 93.7998C311.892 93.7998 314.2 96.1085 314.2 99C314.2 101.892 311.892 104.2 309 104.2C306.108 104.2 303.8 101.892 303.8 99C303.8 96.1085 306.108 93.7998 309 93.7998Z" stroke="white" stroke-width="1.6"/>
<path d="M309 96.8V99L307.333 100" stroke="white" stroke-width="1.6" stroke-miterlimit="10" stroke-linecap="round" stroke-linejoin="round"/>
<path d="M246.017 100.751C246.164 101.193 246.359 101.522 246.602 101.739C246.853 101.956 247.222 102.064 247.707 102.064C247.95 102.064 248.175 102.025 248.383 101.947C248.6 101.86 248.79 101.748 248.955 101.609C249.12 101.462 249.25 101.288 249.345 101.089C249.44 100.881 249.488 100.651 249.488 100.4C249.488 100.019 249.406 99.7153 249.241 99.49C249.085 99.256 248.881 99.0827 248.63 98.97C248.379 98.8487 248.101 98.7707 247.798 98.736C247.495 98.7013 247.196 98.684 246.901 98.684V97.592C247.378 97.592 247.768 97.5617 248.071 97.501C248.374 97.4317 248.613 97.3363 248.786 97.215C248.959 97.0937 249.081 96.942 249.15 96.76C249.219 96.578 249.254 96.3743 249.254 96.149C249.254 95.655 249.107 95.2823 248.812 95.031C248.517 94.7797 248.149 94.654 247.707 94.654C247.369 94.654 247.061 94.7537 246.784 94.953C246.515 95.1437 246.312 95.3993 246.173 95.72L244.899 95.291C245.142 94.7017 245.51 94.2683 246.004 93.991C246.507 93.705 247.066 93.562 247.681 93.562C248.054 93.562 248.409 93.614 248.747 93.718C249.094 93.8133 249.397 93.965 249.657 94.173C249.917 94.381 250.121 94.6453 250.268 94.966C250.424 95.278 250.502 95.6463 250.502 96.071C250.502 96.5563 250.355 96.9897 250.06 97.371C249.774 97.7523 249.397 98.0123 248.929 98.151V98.177C249.215 98.229 249.471 98.3243 249.696 98.463C249.921 98.6017 250.112 98.775 250.268 98.983C250.424 99.191 250.541 99.425 250.619 99.685C250.697 99.9363 250.736 100.205 250.736 100.491C250.736 100.933 250.649 101.323 250.476 101.661C250.311 101.99 250.086 102.268 249.8 102.493C249.523 102.71 249.198 102.874 248.825 102.987C248.461 103.1 248.075 103.156 247.668 103.156C246.966 103.156 246.346 102.996 245.809 102.675C245.28 102.354 244.912 101.847 244.704 101.154L246.017 100.751ZM255.232 96.838H256.324V97.8H256.35C256.376 97.7133 256.441 97.605 256.545 97.475C256.658 97.345 256.796 97.2237 256.961 97.111C257.134 96.9897 257.334 96.89 257.559 96.812C257.793 96.7253 258.049 96.682 258.326 96.682C258.785 96.682 259.171 96.7773 259.483 96.968C259.795 97.1587 260.051 97.4447 260.25 97.826C260.449 97.4447 260.731 97.1587 261.095 96.968C261.459 96.7773 261.827 96.682 262.2 96.682C262.677 96.682 263.067 96.76 263.37 96.916C263.673 97.072 263.912 97.28 264.085 97.54C264.258 97.7913 264.375 98.0817 264.436 98.411C264.505 98.7317 264.54 99.0653 264.54 99.412V103H263.37V99.568C263.37 99.334 263.353 99.1087 263.318 98.892C263.292 98.6753 263.231 98.4847 263.136 98.32C263.041 98.1553 262.906 98.0253 262.733 97.93C262.56 97.826 262.33 97.774 262.044 97.774C261.481 97.774 261.078 97.9473 260.835 98.294C260.592 98.6407 260.471 99.087 260.471 99.633V103H259.301V99.776C259.301 99.4813 259.284 99.2127 259.249 98.97C259.223 98.7273 259.162 98.5193 259.067 98.346C258.98 98.164 258.85 98.0253 258.677 97.93C258.512 97.826 258.287 97.774 258.001 97.774C257.793 97.774 257.589 97.8173 257.39 97.904C257.199 97.982 257.03 98.1033 256.883 98.268C256.736 98.4327 256.619 98.645 256.532 98.905C256.445 99.1563 256.402 99.4553 256.402 99.802V103H255.232V96.838ZM266.093 96.838H267.263V103H266.093V96.838ZM265.82 94.628C265.82 94.394 265.902 94.1947 266.067 94.03C266.24 93.8567 266.444 93.77 266.678 93.77C266.912 93.77 267.111 93.8567 267.276 94.03C267.449 94.1947 267.536 94.394 267.536 94.628C267.536 94.862 267.449 95.0657 267.276 95.239C267.111 95.4037 266.912 95.486 266.678 95.486C266.444 95.486 266.24 95.4037 266.067 95.239C265.902 95.0657 265.82 94.862 265.82 94.628ZM268.825 96.838H269.995V97.787H270.021C270.169 97.4577 270.424 97.1933 270.788 96.994C271.152 96.786 271.573 96.682 272.049 96.682C272.344 96.682 272.626 96.7297 272.894 96.825C273.172 96.9117 273.41 97.0503 273.609 97.241C273.817 97.4317 273.982 97.6787 274.103 97.982C274.225 98.2767 274.285 98.6277 274.285 99.035V103H273.115V99.36C273.115 99.074 273.076 98.8313 272.998 98.632C272.92 98.424 272.816 98.2593 272.686 98.138C272.556 98.008 272.405 97.917 272.231 97.865C272.067 97.8043 271.893 97.774 271.711 97.774C271.469 97.774 271.243 97.813 271.035 97.891C270.827 97.969 270.645 98.0947 270.489 98.268C270.333 98.4327 270.212 98.645 270.125 98.905C270.039 99.165 269.995 99.4727 269.995 99.828V103H268.825V96.838ZM281.209 103H280.039V102.051H280.013C279.866 102.38 279.61 102.649 279.246 102.857C278.882 103.056 278.462 103.156 277.985 103.156C277.682 103.156 277.396 103.108 277.127 103.013C276.858 102.926 276.62 102.788 276.412 102.597C276.213 102.406 276.052 102.164 275.931 101.869C275.81 101.566 275.749 101.21 275.749 100.803V96.838H276.919V100.478C276.919 100.764 276.958 101.011 277.036 101.219C277.114 101.418 277.218 101.583 277.348 101.713C277.478 101.834 277.625 101.925 277.79 101.986C277.963 102.038 278.141 102.064 278.323 102.064C278.566 102.064 278.791 102.025 278.999 101.947C279.207 101.869 279.389 101.748 279.545 101.583C279.701 101.41 279.822 101.193 279.909 100.933C279.996 100.673 280.039 100.365 280.039 100.01V96.838H281.209V103ZM285.974 97.852H284.297V100.647C284.297 100.82 284.302 100.994 284.31 101.167C284.319 101.332 284.349 101.483 284.401 101.622C284.462 101.752 284.549 101.86 284.661 101.947C284.783 102.025 284.956 102.064 285.181 102.064C285.32 102.064 285.463 102.051 285.61 102.025C285.758 101.999 285.892 101.951 286.013 101.882V102.948C285.875 103.026 285.693 103.078 285.467 103.104C285.251 103.139 285.082 103.156 284.96 103.156C284.51 103.156 284.159 103.095 283.907 102.974C283.665 102.844 283.483 102.679 283.361 102.48C283.249 102.281 283.179 102.06 283.153 101.817C283.136 101.566 283.127 101.314 283.127 101.063V97.852H281.775V96.838H283.127V95.109H284.297V96.838H285.974V97.852ZM288.068 100.348C288.068 100.617 288.124 100.864 288.237 101.089C288.358 101.306 288.514 101.492 288.705 101.648C288.896 101.804 289.117 101.925 289.368 102.012C289.619 102.099 289.879 102.142 290.148 102.142C290.512 102.142 290.828 102.06 291.097 101.895C291.366 101.722 291.613 101.496 291.838 101.219L292.722 101.895C292.072 102.736 291.162 103.156 289.992 103.156C289.507 103.156 289.065 103.074 288.666 102.909C288.276 102.744 287.942 102.519 287.665 102.233C287.396 101.938 287.188 101.596 287.041 101.206C286.894 100.807 286.82 100.378 286.82 99.919C286.82 99.4597 286.898 99.035 287.054 98.645C287.219 98.2463 287.44 97.904 287.717 97.618C288.003 97.3233 288.341 97.0937 288.731 96.929C289.121 96.7643 289.546 96.682 290.005 96.682C290.551 96.682 291.01 96.7773 291.383 96.968C291.764 97.1587 292.076 97.41 292.319 97.722C292.562 98.0253 292.735 98.372 292.839 98.762C292.952 99.1433 293.008 99.5333 293.008 99.932V100.348H288.068ZM291.76 99.412C291.751 99.152 291.708 98.9137 291.63 98.697C291.561 98.4803 291.452 98.294 291.305 98.138C291.158 97.9733 290.971 97.8477 290.746 97.761C290.529 97.6657 290.274 97.618 289.979 97.618C289.693 97.618 289.429 97.6743 289.186 97.787C288.952 97.891 288.753 98.0297 288.588 98.203C288.423 98.3763 288.293 98.5713 288.198 98.788C288.111 98.996 288.068 99.204 288.068 99.412H291.76ZM297.384 98.385C297.245 98.2117 297.072 98.0687 296.864 97.956C296.664 97.8347 296.417 97.774 296.123 97.774C295.845 97.774 295.603 97.8347 295.395 97.956C295.195 98.0687 295.096 98.2377 295.096 98.463C295.096 98.645 295.152 98.7923 295.265 98.905C295.386 99.0177 295.525 99.1087 295.681 99.178C295.845 99.2473 296.019 99.2993 296.201 99.334C296.383 99.3687 296.539 99.399 296.669 99.425C296.92 99.4857 297.154 99.5593 297.371 99.646C297.596 99.7327 297.787 99.8453 297.943 99.984C298.107 100.123 298.233 100.292 298.32 100.491C298.415 100.69 298.463 100.933 298.463 101.219C298.463 101.566 298.389 101.865 298.242 102.116C298.094 102.359 297.904 102.558 297.67 102.714C297.436 102.87 297.167 102.983 296.864 103.052C296.569 103.121 296.27 103.156 295.967 103.156C295.455 103.156 295.005 103.078 294.615 102.922C294.233 102.766 293.891 102.48 293.588 102.064L294.472 101.336C294.662 101.527 294.875 101.696 295.109 101.843C295.343 101.99 295.629 102.064 295.967 102.064C296.114 102.064 296.261 102.051 296.409 102.025C296.565 101.99 296.699 101.943 296.812 101.882C296.933 101.813 297.028 101.73 297.098 101.635C297.176 101.531 297.215 101.414 297.215 101.284C297.215 101.111 297.158 100.968 297.046 100.855C296.942 100.742 296.812 100.656 296.656 100.595C296.508 100.526 296.348 100.474 296.175 100.439C296.01 100.396 295.863 100.361 295.733 100.335C295.481 100.274 295.243 100.205 295.018 100.127C294.792 100.049 294.593 99.945 294.42 99.815C294.246 99.685 294.108 99.5203 294.004 99.321C293.9 99.1217 293.848 98.8747 293.848 98.58C293.848 98.2593 293.913 97.982 294.043 97.748C294.181 97.5053 294.359 97.306 294.576 97.15C294.801 96.994 295.052 96.877 295.33 96.799C295.616 96.721 295.902 96.682 296.188 96.682C296.604 96.682 297.002 96.76 297.384 96.916C297.765 97.072 298.068 97.332 298.294 97.696L297.384 98.385Z" fill="white"/>
<defs>
<filter id="filter0_d_3404_401" x="0" y="0" width="347" height="144" filterUnits="userSpaceOnUse" color-interpolation-filters="sRGB">
<feFlood flood-opacity="0" result="BackgroundImageFix"/>
<feColorMatrix in="SourceAlpha" type="matrix" values="0 0 0 0 0 0 0 0 0 0 0 0 0 0 0 0 0 0 127 0" result="hardAlpha"/>
<feMorphology radius="13" operator="erode" in="SourceAlpha" result="effect1_dropShadow_3404_401"/>
<feOffset dy="8"/>
<feGaussianBlur stdDeviation="17.5"/>
<feColorMatrix type="matrix" values="0 0 0 0 1 0 0 0 0 1 0 0 0 0 1 0 0 0 0.09 0"/>
<feBlend mode="normal" in2="BackgroundImageFix" result="effect1_dropShadow_3404_401"/>
<feBlend mode="normal" in="SourceGraphic" in2="effect1_dropShadow_3404_401" result="shape"/>
</filter>
<filter id="filter1_d_3404_401" x="0" y="0" width="144" height="144" filterUnits="userSpaceOnUse" color-interpolation-filters="sRGB">
<feFlood flood-opacity="0" result="BackgroundImageFix"/>
<feColorMatrix in="SourceAlpha" type="matrix" values="0 0 0 0 0 0 0 0 0 0 0 0 0 0 0 0 0 0 127 0" result="hardAlpha"/>
<feMorphology radius="13" operator="erode" in="SourceAlpha" result="effect1_dropShadow_3404_401"/>
<feOffset dy="8"/>
<feGaussianBlur stdDeviation="17.5"/>
<feColorMatrix type="matrix" values="0 0 0 0 0 0 0 0 0 0 0 0 0 0 0 0 0 0 0.09 0"/>
<feBlend mode="normal" in2="BackgroundImageFix" result="effect1_dropShadow_3404_401"/>
<feBlend mode="normal" in="SourceGraphic" in2="effect1_dropShadow_3404_401" result="shape"/>
</filter>
</defs>
</svg>
